<svg xmlns="http://www.w3.org/2000/svg" width="108.991" height="31" viewBox="0 0 108.991 31">
    <defs>
        <clipPath id="boejv1lqia">
            <path data-name="사각형 10925" style="fill:none" d="M0 0h108.991v31H0z"/>
        </clipPath>
    </defs>
    <g data-name="그룹 28972" style="clip-path:url(#boejv1lqia)">
        <path data-name="패스 255" d="M49.752 128.571a4.277 4.277 0 0 0 .667-.449c1.21-1.187 2.392-2.4 3.62-3.571a.956.956 0 0 1 .826-.185c3.377 1.36 6.739 2.757 10.1 4.149a2.14 2.14 0 0 1 .306.174l-7.659 7.744c-.189-.178-.391-.36-.584-.552q-3.334-3.321-6.664-6.646c-.213-.213-.4-.454-.6-.682l-.019.017" transform="translate(-42.189 -105.434)" style="fill:#fe0000"/>
        <path data-name="패스 256" d="M67.238 7.679c-1.386 1.371-2.776 2.739-4.156 4.117-.266.265-.477.441-.91.258-3.36-1.412-6.733-2.794-10.1-4.187a2.665 2.665 0 0 1-.252-.127L59.491 0l7.738 7.7z" transform="translate(-43.941)" style="fill:#fe0000"/>
        <path data-name="패스 257" d="m153.2 50.548 7.644 7.665-7.638 7.735V50.534l-.008.015" transform="translate(-129.913 -42.851)" style="fill:#fe0000"/>
        <path data-name="패스 258" d="M7.582 67.633c-.676-.643-1.365-1.272-2.024-1.931C3.677 63.823 1.809 61.931 0 60.107l7.571-7.614a1.263 1.263 0 0 1 .045.266v14.44a3.8 3.8 0 0 1-.052.451l.018-.017" transform="translate(0 -44.514)" style="fill:#fe0000"/>
        <path data-name="패스 259" d="M38.965 16.676V6.505l6.125 5.839V6.965h1.995v10.057l-6.16-5.857v5.511z"/>
        <path data-name="패스 260" d="M56.646 14.386a5.219 5.219 0 0 0 1.315.679 2.728 2.728 0 0 0 1.585-.1 1.154 1.154 0 0 0 .055-2.118c-.447-.282-.943-.487-1.41-.738-1.707-.919-2.3-2.5-1.488-3.962a3.4 3.4 0 0 1 4.531-1.135.787.787 0 0 1 .31.528c.045.448.014.9.014 1.455a3.276 3.276 0 0 0-.772-.418 4.966 4.966 0 0 0-1.676-.187 1.217 1.217 0 0 0-.739.826c-.061.281.2.689.422.959a2.45 2.45 0 0 0 .77.468c.267.143.549.258.814.4 1.6.886 2.213 2.144 1.772 3.6a3.309 3.309 0 0 1-3.676 2.265c-1.757-.174-2.037-.55-1.827-2.527"/>
        <path data-name="패스 261" d="m76.683 6.441 4.378 10.283a16.442 16.442 0 0 1-1.835-.023.86.86 0 0 1-.535-.491c-.572-1.406-1.1-2.829-1.652-4.245-.09-.232-.19-.459-.356-.858-.262.646-.469 1.14-.662 1.639-.429 1.109-.885 2.21-1.262 3.336a.826.826 0 0 1-1 .65c-.425-.039-.856-.008-1.445-.008l4.371-10.283"/>
        <path data-name="패스 262" d="M69.925 8.894a12.263 12.263 0 0 0-1.723-.6 1.158 1.158 0 0 0-1.413.755c-.24.662.168 1.051.692 1.34.554.305 1.134.565 1.675.89a2.764 2.764 0 0 1 1.487 2.851 2.985 2.985 0 0 1-2.065 2.585 4.05 4.05 0 0 1-1.562.2c-1.849-.1-2.233-.617-1.949-2.513a6.434 6.434 0 0 0 1.116.607 3.073 3.073 0 0 0 1.323.164 1.172 1.172 0 0 0 1.1-1.174 1.968 1.968 0 0 0-.728-1.192 10.813 10.813 0 0 0-1.526-.836 2.745 2.745 0 0 1-1.5-3.172 3.027 3.027 0 0 1 2.947-2.194c1.859-.043 2.26.391 2.126 2.292"/>
        <path data-name="패스 263" d="M84.904 10.209c.525-.939 1.021-1.759 1.447-2.614a1.037 1.037 0 0 1 1.175-.7 13.549 13.549 0 0 0 1.551.012c-.951 1.562-1.859 2.984-2.686 4.451a3.842 3.842 0 0 0-.459 1.621c-.067 1.208-.021 2.423-.021 3.689h-2.024c0-1.29.033-2.573-.018-3.852a2.969 2.969 0 0 0-.382-1.339c-.88-1.5-1.819-2.961-2.817-4.566.808 0 1.484-.035 2.152.023.185.016.393.282.509.481.52.887 1.011 1.791 1.572 2.794"/>
        <path data-name="사각형 10924" d="M51.01 6.951h1.964v9.752H51.01z"/>
        <path data-name="패스 264" d="M85.053 20.265c-1.536-.508-2.468-.3-2.884.688a1.647 1.647 0 0 0 1 2.213 1.55 1.55 0 0 0 2-1.167l-1.524-.083v-.737h2.474a2.387 2.387 0 0 1-1.263 2.723 2.591 2.591 0 0 1-3.17-.609 2.627 2.627 0 0 1-.151-3.169 2.471 2.471 0 0 1 2.942-.923c.3.15.391.7.578 1.062"/>
        <path data-name="패스 265" d="m90.578 23.942 1.2-4.917 1.592 2.78 1.6-2.775 1.2 4.92c-.695.254-1.043.078-1.13-.638-.067-.546-.232-1.08-.4-1.813l-1.278 2.113-1.253-2.128c-.167.726-.3 1.281-.422 1.838-.177.805-.175.806-1.12.62"/>
        <path data-name="패스 266" d="M61.647 21.458c-.166.777-.327 1.315-.387 1.865-.081.741-.461.861-1.138.633l1.192-4.919 1.6 2.742 1.609-2.738 1.2 4.963h-.971l-.556-2.513-1.282 2.118-1.27-2.15"/>
        <path data-name="패스 267" d="M104.818 19.24v4.952l-3.02-2.871v2.69h-.972v-4.983l3.013 2.83V19.24z"/>
        <path data-name="패스 268" d="m75.506 24.166-3.016-2.859v2.7h-.95v-4.976l3 2.825v-2.632l.963-.045z"/>
        <path data-name="패스 269" d="m78.519 18.941 2.387 5.026c-.656.163-1.112.142-1.345-.542-.053-.156-.446-.268-.686-.274-.645-.018-1.375-.233-1.685.7-.056.169-.6.175-1.162.317l2.49-5.229m.579 3.327-.584-1.244-.555 1.244z"/>
        <path data-name="패스 270" d="m38.274 23.982 2.4-5.033 2.395 5.017c-.613.133-1.056.192-1.319-.5-.183-.48-1.854-.49-2.143-.06-.447.666-.447.666-1.334.572m1.833-1.722h1.133l-.578-1.219-.556 1.219"/>
        <path data-name="패스 271" d="m66.133 23.993 2.4-5.044 2.371 4.955c-.844.254-.859.249-1.268-.42a1.828 1.828 0 0 0-2.194-.026c-.375.609-.375.609-1.31.535m2.95-1.72-.558-1.271-.533 1.271z"/>
        <path data-name="패스 272" d="M89.789 24.005h-2.617v-4.767h2.6v.809h-1.58v1.058l1.513.067.064.731-1.576.082v1.169c.53.073 1.065.134 1.589.244a2.737 2.737 0 0 1 .005.605"/>
        <path data-name="패스 273" d="M99.631 19.235v.8h-1.578v1.063l1.532.075v.733l-1.54.074v1.218l1.588.084v.719h-2.6v-4.766z"/>
        <path data-name="패스 274" d="M53.649 23.216v.783h-2.556V19.23h2.556l.055.807h-1.652v1.07h1.532l.056.788-1.576.092v1.23z"/>
        <path data-name="패스 275" d="M43.545 22.966c.428.156.741.377 1.026.346a1.315 1.315 0 0 0 .813-.5c.071-.1-.174-.528-.37-.7-.279-.243-.673-.351-.969-.579a1.321 1.321 0 0 1-.253-1.886 1.632 1.632 0 0 1 2.113-.384c.173.157.163.518.258.868a4.26 4.26 0 0 0-1.034-.232.746.746 0 0 0-.571.366.731.731 0 0 0 .261.61c.311.249.715.379 1.038.617a1.432 1.432 0 0 1 .216 2.139 1.764 1.764 0 0 1-2.269.29c-.183-.19-.165-.574-.259-.952"/>
        <path data-name="패스 276" d="M49.782 20.142a4.329 4.329 0 0 0-1.078-.242.761.761 0 0 0-.538.415c-.054.132.108.431.258.553a7.935 7.935 0 0 0 .855.485 1.432 1.432 0 0 1 .511 2.144 1.7 1.7 0 0 1-2.293.462c-.208-.173-.219-.582-.362-1.007.462.177.752.391 1.015.361a1.32 1.32 0 0 0 .837-.465c.077-.1-.179-.554-.381-.742-.251-.234-.627-.329-.907-.54a1.33 1.33 0 0 1-.313-1.884 1.609 1.609 0 0 1 2.1-.429c.19.163.189.548.292.89"/>
        <path data-name="패스 277" d="m108.991 20-1.117.082v3.931h-1v-3.9l-1.067-.115v-.756h3.116l.065.762"/>
        <path data-name="패스 278" d="m57.698 19.258.042.72-1.14.118v3.9h-.955v-3.893l-1.117-.093-.073-.748z"/>
    </g>
</svg>
